<svg height="511pt" viewBox="0 -17 511.88336 511" width="511pt" xmlns="http://www.w3.org/2000/svg"><path d="m70.757812 215.394531-35.398437 15.183594 19.863281 50.316406-30.101562 19.863281-22.597656-57.203124c-7.101563-17.746094 1.292968-37.914063 18.890624-45.375l46.078126-19.773438c1.46875-.617188 3.011718-1.03125 4.589843-1.234375zm0 0" fill="#e57e25"/><path d="m441.125 215.394531 35.398438 15.183594-19.863282 50.316406 30.101563 19.863281 22.597656-57.203124c7.101563-17.746094-1.292969-37.914063-18.890625-45.375l-46.078125-19.773438c-1.46875-.617188-3.011719-1.03125-4.589844-1.234375zm0 0" fill="#e57e25"/><path d="m355.539062 374.644531c54.703126-39.722656 86.675782-103.570312 85.714844-171.167969 0-112.109374-82.980468-203.035156-185.378906-203.035156-94.28125 0-172.050781 77.066406-183.792969 176.730469-1.066406 8.726563-1.597656 17.511719-1.585937 26.304687 0 3.972657.085937 7.945313.261718 11.917969 1.417969 26.460938 7.609376 52.449219 18.273438 76.710938l23.394531 39.988281c12.238281 16.421875 27.019531 30.789062 43.785157 42.550781l98.683593 75.03125zm0 0" fill="#f0c419"/><path d="m255.875 432.992188v26.484374c-.03125 9.738282-7.917969 17.625-17.65625 17.65625h-105.929688c-9.738281-.03125-17.628906-7.917968-17.65625-17.65625v-26.484374c-.011718-16.390626 6.496094-32.117188 18.085938-43.707032s27.316406-18.097656 43.707031-18.085937h17.65625c16.390625-.011719 32.117188 6.496093 43.707031 18.085937 11.589844 11.589844 18.097657 27.316406 18.085938 43.707032zm0 0" fill="#3f5c6c"/><path d="m264.703125 441.820312c-.015625 4.871094-3.960937 8.8125-8.828125 8.828126h-141.242188v-17.65625h141.242188c4.867188.015624 8.8125 3.960937 8.828125 8.828124zm0 0" fill="#35495e"/><path d="m397.117188 432.992188v26.484374c-.03125 9.738282-7.917969 17.625-17.65625 17.65625h-105.929688c-9.742188-.03125-17.628906-7.917968-17.65625-17.65625v-26.484374c-.011719-16.390626 6.492188-32.117188 18.085938-43.707032 11.589843-11.589844 27.3125-18.097656 43.707031-18.085937h17.65625c16.390625-.011719 32.113281 6.496093 43.707031 18.085937 11.589844 11.589844 18.097656 27.316406 18.085938 43.707032zm0 0" fill="#35495e"/><path d="m255.875 432.992188h141.242188v17.65625h-141.242188zm0 0" fill="#2c3e50"/><path d="m100.550781 303.671875c-17.382812-22.777344-46.585937-29.710937-65.21875-15.488281-18.636719 14.222656-19.652343 44.21875-2.269531 66.996094 17.386719 22.777343 46.585938 29.714843 65.222656 15.488281 18.636719-14.222657 19.652344-44.21875 2.265625-66.996094zm0 0" fill="#f29c1f"/><path d="m476.550781 288.183594c-18.632812-14.222656-47.835937-7.289063-65.21875 15.488281-17.386719 22.777344-16.371093 52.773437 2.265625 66.996094 18.636719 14.226562 47.835938 7.289062 65.222656-15.488281 17.382813-22.777344 16.367188-52.773438-2.269531-66.996094zm0 0" fill="#f29c1f"/><g fill="#2c3e50"><path d="m273.53125 159.339844s0-8.828125-17.65625-8.828125-17.65625 8.828125-17.65625 8.828125v-35.3125s0-8.828125 17.65625-8.828125 17.65625 8.828125 17.65625 8.828125zm0 0"/><path d="m70.496094 124.027344h44.136718v35.3125h-44.136718c-9.75 0-17.65625-7.90625-17.65625-17.65625s7.90625-17.65625 17.65625-17.65625zm0 0"/><path d="m397.117188 124.027344h44.136718c9.75 0 17.65625 7.90625 17.65625 17.65625s-7.90625 17.65625-17.65625 17.65625h-44.136718zm0 0"/></g><path d="m273.53125 291.753906h-70.621094c-4.875 0-8.828125-3.953125-8.828125-8.828125s3.953125-8.828125 8.828125-8.828125h70.621094c14.617188-.015625 26.464844-11.863281 26.480469-26.484375 0-4.875 3.953125-8.828125 8.828125-8.828125s8.828125 3.953125 8.828125 8.828125c-.03125 24.367188-19.773438 44.109375-44.136719 44.140625zm0 0" fill="#802d40"/><path d="m238.21875 327.0625h-8.828125c-4.875 0-8.828125-3.953125-8.828125-8.828125s3.953125-8.828125 8.828125-8.828125h8.828125c4.875 0 8.828125 3.953125 8.828125 8.828125s-3.953125 8.828125-8.828125 8.828125zm0 0" fill="#f29c1f"/><path d="m227.679688 63.566406c-9.976563-3.878906-20.871094-4.761718-31.34375-2.542968-5.003907 1.605468-9.671876 4.113281-13.769532 7.398437-2.257812 1.589844-4.121094 3.765625-6.421875 5.542969-2.019531 2.089844-3.910156 4.324218-6.148437 6.414062l-.265625.246094c-.964844.902344-2.429688 1.011719-3.519531.261719-1.089844-.75-1.511719-2.160157-1.011719-3.382813 1.207031-2.96875 2.703125-5.832031 4.175781-8.765625 1.761719-2.824219 3.746094-5.503906 5.929688-8.015625 4.695312-5.246094 10.632812-9.226562 17.269531-11.578125 6.816406-2.375 14.199219-2.632812 21.164062-.734375 6.703125 1.753906 12.742188 5.4375 17.363281 10.59375.847657.976563.949219 2.394532.25 3.480469-.703124 1.085937-2.035156 1.574219-3.273437 1.203125zm0 0" fill="#e57e25"/><path d="m280.644531 59.003906c4.625-5.15625 10.660157-8.839844 17.363281-10.589844 6.964844-1.902343 14.347657-1.644531 21.167969.730469 6.632813 2.351563 12.570313 6.335938 17.265625 11.582031 2.1875 2.507813 4.167969 5.1875 5.929688 8.011719 1.472656 2.933594 2.96875 5.796875 4.175781 8.765625.496094 1.222656.078125 2.628906-1.011719 3.378906-1.085937.75-2.550781.644532-3.519531-.253906l-.265625-.25c-2.234375-2.085937-4.128906-4.324218-6.148438-6.414062-2.292968-1.777344-4.160156-3.949219-6.417968-5.542969-4.101563-3.28125-8.769532-5.789063-13.773438-7.398437-10.472656-2.21875-21.367187-1.335938-31.34375 2.546874l-.390625.117188c-1.238281.375-2.574219-.117188-3.273437-1.199219-.703125-1.085937-.605469-2.503906.242187-3.480469zm0 0" fill="#e57e25"/><path d="m123.460938 115.199219h105.929687c4.875 0 8.828125 3.953125 8.828125 8.828125v35.3125c0 34.125-27.664062 61.792968-61.792969 61.792968-34.128906 0-61.792969-27.667968-61.792969-61.792968v-35.3125c0-4.875 3.953126-8.828125 8.828126-8.828125zm0 0" fill="#35495e"/><path d="m282.355469 115.199219h105.933593c4.875 0 8.828126 3.953125 8.828126 8.828125v35.3125c0 34.125-27.667969 61.792968-61.792969 61.792968-34.128907 0-61.792969-27.667968-61.792969-61.792968v-35.3125c0-4.875 3.949219-8.828125 8.824219-8.828125zm0 0" fill="#35495e"/><path d="m149.941406 168.164062c-3.566406 0-6.785156-2.148437-8.152344-5.449218-1.367187-3.296875-.609374-7.09375 1.914063-9.617188l8.828125-8.828125c3.460938-3.34375 8.96875-3.296875 12.371094.109375 3.40625 3.402344 3.453125 8.910156.109375 12.371094l-8.828125 8.828125c-1.652344 1.660156-3.898438 2.589844-6.242188 2.585937zm0 0" fill="#3f5c6c"/><path d="m308.839844 168.164062c-3.570313 0-6.789063-2.148437-8.152344-5.449218-1.367188-3.296875-.613281-7.09375 1.910156-9.617188l8.828125-8.828125c3.464844-3.34375 8.96875-3.296875 12.375.109375 3.40625 3.402344 3.453125 8.910156.109375 12.371094l-8.828125 8.828125c-1.65625 1.660156-3.902343 2.589844-6.242187 2.585937zm0 0" fill="#3f5c6c"/></svg>